<svg width="500" height="500" viewBox="0 0 500 500" fill="none" xmlns="http://www.w3.org/2000/svg">
<circle cx="250" cy="250" r="150" fill="#FF6500" fill-opacity="0.1"/>
<circle cx="250" cy="250" r="210" fill="#FF6500" fill-opacity="0.1"/>
<circle cx="250" cy="250" r="240" fill="#FF6500" fill-opacity="0.1"/>
<circle cx="250" cy="250" r="239" stroke="#C40C0C" stroke-opacity="0.1" stroke-width="2"/>
<g filter="url(#filter0_f_262_50)">
<path fill-rule="evenodd" clip-rule="evenodd" d="M212.146 152.653L176.677 217.732C161.793 245.049 154.345 258.7 158.445 269.429L158.654 269.963C162.997 280.534 175.855 280.534 201.558 280.534C215.841 280.534 222.988 280.534 227.459 286.236L227.69 286.551L272.541 214.764L272.309 214.449C267.919 208.622 267.919 199.322 267.919 180.708V175.838C267.919 124.236 267.919 98.4433 257.228 93.9979C246.536 89.5524 235.069 110.586 212.146 152.653Z" fill="#FF8A08"/>
<path opacity="0.5" d="M232.081 320.292V325.162C232.081 376.748 232.081 402.557 242.772 407.002C253.463 411.448 264.931 390.414 287.866 348.347L323.334 283.268C338.207 255.951 345.655 242.3 341.555 231.571L341.346 231.037C337.002 220.466 324.145 220.466 298.441 220.466C284.159 220.466 277.012 220.466 272.541 214.764L227.69 286.551C232.081 292.378 232.081 301.678 232.081 320.292Z" fill="#FF8A08"/>
</g>
<path fill-rule="evenodd" clip-rule="evenodd" d="M212.146 152.653L176.677 217.732C161.793 245.049 154.345 258.7 158.445 269.429L158.654 269.963C162.997 280.534 175.855 280.534 201.558 280.534C215.841 280.534 222.988 280.534 227.459 286.236L227.69 286.551L272.541 214.764L272.309 214.449C267.919 208.622 267.919 199.322 267.919 180.708V175.838C267.919 124.236 267.919 98.4433 257.228 93.9979C246.536 89.5524 235.069 110.586 212.146 152.653Z" fill="#FF8A08"/>
<path opacity="0.5" d="M232.081 320.292V325.162C232.081 376.748 232.081 402.557 242.772 407.002C253.463 411.448 264.931 390.414 287.866 348.347L323.334 283.268C338.207 255.951 345.655 242.3 341.555 231.571L341.346 231.037C337.002 220.466 324.145 220.466 298.441 220.466C284.159 220.466 277.012 220.466 272.541 214.764L227.69 286.551C232.081 292.378 232.081 301.678 232.081 320.292Z" fill="#FF8A08"/>
<defs>
<filter id="filter0_f_262_50" x="81" y="32" width="338" height="437" filterUnits="userSpaceOnUse" color-interpolation-filters="sRGB">
<feFlood flood-opacity="0" result="BackgroundImageFix"/>
<feBlend mode="normal" in="SourceGraphic" in2="BackgroundImageFix" result="shape"/>
<feGaussianBlur stdDeviation="15" result="effect1_foregroundBlur_262_50"/>
</filter>
</defs>
</svg>
